<?xml version="1.0" encoding="UTF-8" standalone="no"?>
<!-- Created with Inkscape (http://www.inkscape.org/) -->

<svg
   xmlns:dc="http://purl.org/dc/elements/1.1/"
   xmlns:cc="http://creativecommons.org/ns#"
   xmlns:rdf="http://www.w3.org/1999/02/22-rdf-syntax-ns#"
   xmlns:svg="http://www.w3.org/2000/svg"
   xmlns="http://www.w3.org/2000/svg"
   xmlns:sodipodi="http://sodipodi.sourceforge.net/DTD/sodipodi-0.dtd"
   xmlns:inkscape="http://www.inkscape.org/namespaces/inkscape"
   height="11.488mm"
   width="11.488mm"
   version="1.1"
   viewBox="0 0 11.487842 11.48784"
   id="svg7"
   sodipodi:docname="be_icon.svg"
   inkscape:version="0.92.1 r15371">
  <defs
     id="defs11" />
  <sodipodi:namedview
     pagecolor="#ffffff"
     bordercolor="#666666"
     borderopacity="1"
     objecttolerance="10"
     gridtolerance="10"
     guidetolerance="10"
     inkscape:pageopacity="0"
     inkscape:pageshadow="2"
     inkscape:window-width="2560"
     inkscape:window-height="1017"
     id="namedview9"
     showgrid="false"
     inkscape:zoom="5.4353819"
     inkscape:cx="21.709606"
     inkscape:cy="21.709606"
     inkscape:window-x="0"
     inkscape:window-y="24"
     inkscape:window-maximized="1"
     inkscape:current-layer="g5" />
  <metadata
     id="metadata2">
    <rdf:RDF>
      <cc:Work
         rdf:about="">
        <dc:format>image/svg+xml</dc:format>
        <dc:type
           rdf:resource="http://purl.org/dc/dcmitype/StillImage" />
        <dc:title />
      </cc:Work>
    </rdf:RDF>
  </metadata>
  <g
     transform="translate(-91.774 -120.41)"
     id="g5">
    <path
       id="be_icon"
       d="m 91.774,120.41 v 11.488 h 11.488 V 120.41 Z m 1.3546,3.0127 h 2.638 c 0.66494,0.0108 1.1363,0.20349 1.4146,0.58183 0.16704,0.23205 0.24981,0.5106 0.24981,0.83425 0,0.33395 -0.08374,0.60093 -0.25241,0.80395 -0.09383,0.11383 -0.23248,0.21751 -0.41597,0.31096 0.27792,0.10175 0.48879,0.26199 0.62972,0.48261 0.14193,0.21983 0.21289,0.48682 0.21289,0.8002 0,0.32407 -0.07991,0.61465 -0.2426,0.87145 -0.1035,0.16994 -0.23214,0.31368 -0.38654,0.42924 -0.17389,0.13364 -0.37977,0.22508 -0.61645,0.27404 -0.23743,0.049 -0.49424,0.0738 -0.77107,0.0738 h -2.46 z m 5.7281,0.22673 h 2.1998 v 0.54636 h -2.1998 z m -4.4683,0.72174 v 1.2052 h 1.1559 c 0.23753,0 0.42933,-0.0453 0.57722,-0.13558 0.14779,-0.0901 0.22154,-0.25031 0.22154,-0.48029 0,-0.25409 -0.09761,-0.42249 -0.29337,-0.50366 -0.16826,-0.0564 -0.38349,-0.0857 -0.64472,-0.0857 z m 5.5769,0.32684 c 0.34006,0 0.64644,0.0607 0.91992,0.18288 0.27262,0.12232 0.49785,0.31495 0.6753,0.57953 0.16058,0.233 0.26393,0.50252 0.31212,0.80943 0.0266,0.17871 0.0386,0.43793 0.0337,0.77684 h -2.8489 c 0.01572,0.39322 0.15159,0.66822 0.40904,0.82559 0.15526,0.0987 0.34352,0.14682 0.56395,0.14682 0.23243,0 0.42187,-0.0586 0.5677,-0.17942 0.0795,-0.064 0.1494,-0.15453 0.21,-0.26856 h 1.0442 c -0.0273,0.23225 -0.15311,0.46766 -0.37905,0.70703 -0.35005,0.38046 -0.84095,0.57145 -1.4715,0.57145 -0.52087,0 -0.97984,-0.16083 -1.3783,-0.48145 -0.39712,-0.32175 -0.59655,-0.84367 -0.59655,-1.5675 0,-0.67878 0.17896,-1.1984 0.53828,-1.56 0.36065,-0.3623 0.82621,-0.5426 1.3999,-0.5426 z m 0,0.84347 c -0.263,0 -0.46609,0.0757 -0.61039,0.22442 -0.14528,0.14845 -0.23584,0.35027 -0.27289,0.60578 h 1.7628 c -0.0191,-0.2719 -0.11,-0.47782 -0.27347,-0.61847 -0.16212,-0.14103 -0.36441,-0.21173 -0.60606,-0.21173 z m -5.5769,0.93924 v 1.4556 h 1.1541 c 0.23715,0 0.42082,-0.031 0.55328,-0.0958 0.23888,-0.11908 0.35856,-0.34576 0.35856,-0.68222 0,-0.28375 -0.11584,-0.47976 -0.34731,-0.58501 -0.12944,-0.0598 -0.31219,-0.0904 -0.54635,-0.0926 z"
       inkscape:connector-curvature="0"
       style="fill:#ffffff;fill-rule:evenodd;stroke-width:0.14769"
       sodipodi:nodetypes="ccccccccscccscccscccccccccscsccccccccccsccccscsccccccccccccscsccc" />
  </g>
</svg>
