<?xml version="1.0" encoding="UTF-8" standalone="no"?>
<!-- Created with Inkscape (http://www.inkscape.org/) -->

<svg
   xmlns:dc="http://purl.org/dc/elements/1.1/"
   xmlns:cc="http://creativecommons.org/ns#"
   xmlns:rdf="http://www.w3.org/1999/02/22-rdf-syntax-ns#"
   xmlns:svg="http://www.w3.org/2000/svg"
   xmlns="http://www.w3.org/2000/svg"
   xmlns:sodipodi="http://sodipodi.sourceforge.net/DTD/sodipodi-0.dtd"
   xmlns:inkscape="http://www.inkscape.org/namespaces/inkscape"
   height="11.488mm"
   width="11.488mm"
   version="1.1"
   viewBox="0 0 11.487842 11.48784"
   id="svg7"
   sodipodi:docname="tw_icon.svg"
   inkscape:version="0.92.1 r15371">
  <defs
     id="defs11" />
  <sodipodi:namedview
     pagecolor="#ffffff"
     bordercolor="#666666"
     borderopacity="1"
     objecttolerance="10"
     gridtolerance="10"
     guidetolerance="10"
     inkscape:pageopacity="0"
     inkscape:pageshadow="2"
     inkscape:window-width="839"
     inkscape:window-height="480"
     id="namedview9"
     showgrid="false"
     inkscape:zoom="5.4353819"
     inkscape:cx="21.709606"
     inkscape:cy="19.51299"
     inkscape:window-x="10"
     inkscape:window-y="34"
     inkscape:window-maximized="0"
     inkscape:current-layer="svg7" />
  <metadata
     id="metadata2">
    <rdf:RDF>
      <cc:Work
         rdf:about="">
        <dc:format>image/svg+xml</dc:format>
        <dc:type
           rdf:resource="http://purl.org/dc/dcmitype/StillImage" />
        <dc:title />
      </cc:Work>
    </rdf:RDF>
  </metadata>
  <g
     transform="translate(-91.774 -120.41)"
     id="g5"
     style="fill:#ffffff">
    <path
       id="tw_icon"
       d="m91.774 120.41v11.488h11.488v-11.488zm7.2286 2.6634a1.5573 1.5573 0 0 1 1.1094 0.4901 3.1179 3.1179 0 0 0 0.98799 -0.3776 1.5612 1.5612 0 0 1 -0.68395 0.86049 3.1055 3.1055 0 0 0 0.89338 -0.24462 3.1655 3.1655 0 0 1 -0.77597 0.80511c0.004 0.0667 0.004 0.13372 0.004 0.20106 0 2.056-1.5652 4.4268-4.4268 4.4268l0.000292-0.001a4.4046 4.4046 0 0 1 -2.385 -0.69751 3.167 3.167 0 0 0 0.37039 0.0225 3.1218 3.1218 0 0 0 1.9324 -0.66751 1.5576 1.5576 0 0 1 -1.4536 -1.0803 1.5533 1.5533 0 0 0 0.70241 -0.0268 1.5564 1.5564 0 0 1 -1.2482 -1.5251v-0.0196a1.5442 1.5442 0 0 0 0.70616 0.19471 1.557 1.557 0 0 1 -0.48173 -2.077 4.417 4.417 0 0 0 3.2066 1.6255 1.5573 1.5573 0 0 1 1.5418 -1.9091z"
       style="fill:#ffffff"
       stroke-width=".14769"
       fill-rule="evenodd"
       fill="#00f" />
  </g>
</svg>
